<svg width="24" height="24" viewBox="0 0 24 24" fill="none" xmlns="http://www.w3.org/2000/svg">
<path d="M4.44336 12.7531H11.2214V19.5311C11.2214 19.9451 11.5574 20.2811 11.9714 20.2811C12.3854 20.2811 12.7214 19.9451 12.7214 19.5311V12.7531H19.4994C19.9134 12.7531 20.2494 12.4171 20.2494 12.0031C20.2494 11.5891 19.9134 11.2531 19.4994 11.2531H12.7214V4.47412C12.7214 4.06012 12.3854 3.72412 11.9714 3.72412C11.5574 3.72412 11.2214 4.06012 11.2214 4.47412V11.2521H4.44336C4.02936 11.2521 3.69336 11.5881 3.69336 12.0021C3.69336 12.4161 4.02936 12.7521 4.44336 12.7521V12.7531Z" fill="white"/>
</svg>
