<svg width="33" height="32" viewBox="0 0 33 32" fill="none"
  xmlns="http://www.w3.org/2000/svg">
  <path d="M18.9156 6.49735C18.3729 5.56135 17.4023 5.00269 16.3223 5.00269C15.2396 5.00269 14.2716 5.56135 13.7289 6.49735L4.39692 22.4974C3.85159 23.4374 3.84892 24.5587 4.39026 25.5C4.93159 26.4414 5.90492 27.0027 6.99026 27.0027H25.6543C26.7396 27.0027 27.7129 26.4414 28.2543 25.5C28.7956 24.5587 28.7929 23.436 28.2463 22.496L18.9156 6.49735ZM26.5209 24.5014C26.4343 24.652 26.1756 25.0027 25.6543 25.0027H6.99026C6.46759 25.0027 6.21026 24.652 6.12359 24.5014C6.03693 24.3507 5.86493 23.952 6.12359 23.5027L15.4569 7.50269C15.7169 7.05202 16.1489 7.00269 16.3209 7.00269C16.4929 7.00269 16.9236 7.05202 17.1863 7.50269L26.5169 23.5014C26.7783 23.952 26.6063 24.3507 26.5209 24.5014Z" fill="#CC5F00"/>
  <path d="M16.3183 19.5974H16.3223C16.8729 19.5974 17.3209 19.152 17.3223 18.6L17.3476 11.044C17.3476 10.492 16.9036 10.0427 16.3516 10.0414H16.3476C15.7969 10.0414 15.3489 10.4867 15.3476 11.0387L15.3223 18.5947C15.3223 19.1467 15.7663 19.596 16.3183 19.5974Z" fill="#CC5F00"/>
  <path d="M17.6556 22.004C17.6556 22.74 17.0583 23.3374 16.3223 23.3374C15.5863 23.3374 14.9889 22.74 14.9889 22.004C14.9889 21.268 15.5863 20.6707 16.3223 20.6707C17.0583 20.6707 17.6556 21.268 17.6556 22.004Z" fill="#CC5F00"/>
</svg>
