<svg width="32" height="32" viewBox="0 0 32 32" fill="none"
  xmlns="http://www.w3.org/2000/svg">
  <path d="M24.4536 6.86132C24.1941 6.60173 23.7721 6.60173 23.5126 6.86132L15.983 14.3923L8.45333 6.86132C8.19378 6.60173 7.77184 6.60173 7.51229 6.86132C7.25274 7.12092 7.25274 7.54293 7.51229 7.80252L15.0419 15.3335L7.51229 22.8644C7.25274 23.124 7.25274 23.546 7.51229 23.8056C7.64273 23.9361 7.8131 24 7.98347 24C8.15385 24 8.32422 23.9347 8.45466 23.8056L15.9843 16.2747L23.5139 23.8056C23.6444 23.9361 23.8147 24 23.9851 24C24.1555 24 24.3259 23.9347 24.4563 23.8056C24.7158 23.546 24.7158 23.124 24.4563 22.8644L16.9267 15.3335L24.4563 7.80252C24.7158 7.54293 24.7158 7.12092 24.4563 6.86132H24.4536Z" fill="#231E20"/>
</svg>
