<svg width="24" height="24" viewBox="0 0 24 24" fill="none"
  xmlns="http://www.w3.org/2000/svg">
  <path d="M12 1.75C6.348 1.75 1.75 6.348 1.75 12C1.75 17.652 6.348 22.25 12 22.25C17.652 22.25 22.25 17.652 22.25 12C22.25 6.348 17.652 1.75 12 1.75ZM12 20.75C7.175 20.75 3.25 16.825 3.25 12C3.25 7.175 7.175 3.25 12 3.25C16.825 3.25 20.75 7.175 20.75 12C20.75 16.825 16.825 20.75 12 20.75Z" fill="black"/>
  <path d="M15.712 8.288C15.419 7.995 14.944 7.995 14.651 8.288L12 10.94L9.349 8.288C9.056 7.995 8.581 7.995 8.288 8.288C7.995 8.581 7.995 9.056 8.288 9.349L10.939 12.001L8.288 14.653C7.995 14.946 7.995 15.421 8.288 15.714C8.434 15.86 8.626 15.934 8.818 15.934C9.01 15.934 9.202 15.861 9.348 15.714L11.999 13.062L14.65 15.714C14.796 15.86 14.988 15.934 15.18 15.934C15.372 15.934 15.564 15.861 15.71 15.714C16.003 15.421 16.003 14.946 15.71 14.653L13.059 12.001L15.71 9.349C16.003 9.056 16.003 8.581 15.71 8.288H15.712Z" fill="black"/>
</svg>
