<svg width="25" height="25" viewBox="0 0 25 25" fill="none"
  xmlns="http://www.w3.org/2000/svg">
  <path fill-rule="evenodd" clip-rule="evenodd" d="M19.1822 4.20152L20.5535 5.57304H20.5525C21.4981 6.51777 21.4797 8.07454 20.5128 9.04256L10.1321 19.4191C9.84114 19.7101 9.48037 19.9274 9.08857 20.0486L4.50143 21.4589C4.40639 21.488 4.30941 21.5026 4.21243 21.5026C3.95931 21.5026 3.71396 21.4046 3.53163 21.2213C3.27755 20.9681 3.18736 20.5966 3.29403 20.2513L4.70412 15.6635C4.8234 15.2726 5.04064 14.9117 5.33255 14.6198L15.7133 4.24226C16.1797 3.77474 16.7965 3.51286 17.4492 3.50316C18.1116 3.48861 18.7216 3.74177 19.1822 4.20152ZM8.80539 19.1213C9.0459 19.0476 9.26702 18.9138 9.4474 18.7343L9.4474 18.7353L17.4599 10.7254L14.0307 7.29567L6.01819 15.3046C5.83878 15.485 5.70398 15.7071 5.63028 15.9476L4.22019 20.5355L8.80539 19.1213ZM18.4943 4.88522C17.9262 4.31703 17.0052 4.31703 16.4371 4.88522L14.7227 6.59987L18.1514 10.0292L19.8658 8.31452C20.4339 7.74633 20.4339 6.82512 19.8658 6.25694L18.4943 4.88522Z" fill="white"/>
</svg>
