<svg width="24" height="24" viewBox="0 0 24 24" fill="none" xmlns="http://www.w3.org/2000/svg">
<path d="M16.482 15.422C17.586 14.083 18.25 12.368 18.25 10.5C18.25 6.227 14.773 2.75 10.5 2.75C6.227 2.75 2.75 6.227 2.75 10.5C2.75 14.773 6.227 18.25 10.5 18.25C12.367 18.25 14.082 17.586 15.422 16.482L19.97 21.03C20.116 21.176 20.308 21.25 20.5 21.25C20.692 21.25 20.884 21.177 21.03 21.03C21.323 20.737 21.323 20.262 21.03 19.969L16.482 15.421V15.422ZM4.25 10.5C4.25 7.054 7.054 4.25 10.5 4.25C13.946 4.25 16.75 7.054 16.75 10.5C16.75 13.946 13.946 16.75 10.5 16.75C7.054 16.75 4.25 13.946 4.25 10.5Z" fill="white"/>
</svg>
